Coordinates
version=1
nRows=21
nColumns=22
inDegrees=yes

Units are S.I. units (second, meters, Newtons, ...)
If the header above contains a line with 'inDegrees', this indicates whether rotational values are in degrees (yes) or radians (no).

endheader
time	pelvis_tilt	pelvis_list	pelvis_rotation	pelvis_tx	pelvis_ty	pelvis_tz	hip_flexion_r	hip_adduction_r	hip_rotation_r	knee_angle_r	ankle_angle_r	subtalar_angle_r	hip_flexion_l	hip_adduction_l	hip_rotation_l	knee_angle_l	ankle_angle_l	subtalar_angle_l	lumbar_extension	lumbar_bending	lumbar_rotation
      2.82000000	      6.39375207	     -2.59600896	    -22.03577963	     -0.44438841	      0.90898018	     -0.50021446	    -16.54603367	      7.45883312	      7.90503801	    -30.54754284	      9.97208684	     -4.28264582	     22.10574092	     -0.37106111	     10.41840269	    -29.77682119	      9.65583378	     -4.02338358	    -13.44513893	      0.54683812	     -8.47806050
      2.83000000	      6.50061289	     -2.46651638	    -22.70233316	     -0.43357575	      0.91024823	     -0.49598105	    -15.83927026	      7.04647771	      7.53093324	    -32.89870930	      7.30736188	     -2.98593877	     21.58801347	     -0.23364502	     10.05990069	    -30.57659508	     10.20958802	     -4.46027266	    -13.27048746	      0.24506131	     -8.47538607
      2.84000000	      6.68770872	     -2.33691623	    -23.40477169	     -0.42296701	      0.91180618	     -0.49164108	    -15.02014376	      6.54485383	      6.98061986	    -35.44414031	      4.45806746	     -1.75841266	     20.86298632	     -0.12859919	      9.53412783	    -31.13607502	     10.88976725	     -4.80810286	    -13.20977994	     -0.09765186	     -8.51264381
      2.85000000	      6.93084817	     -2.20352192	    -24.14755208	     -0.41263177	      0.91355856	     -0.48723854	    -14.05795062	      5.94863130	      6.28299768	    -38.17706820	      1.52781929	     -0.68499036	     19.97420531	     -0.04284326	      8.87367696	    -31.47641385	     11.64524546	     -5.08197501	    -13.24160194	     -0.47143324	     -8.59257173
      2.86000000	      7.19796216	     -2.06577260	    -24.93854622	     -0.40262693	      0.91541154	     -0.48280090	    -12.92163293	      5.26074471	      5.47353541	    -41.07933877	     -1.35814514	      0.21940861	     18.96099743	      0.02813888	      8.11757446	    -31.59879452	     12.44719046	     -5.29713988	    -13.33781472	     -0.85853075	     -8.69875365
      2.87000000	      7.46654639	     -1.92737154	    -25.78472236	     -0.39300780	      0.91728761	     -0.47834253	    -11.60464488	      4.50056637	      4.62566231	    -44.10673283	     -4.13207547	      0.88445519	     17.88579341	      0.07248236	      7.22178885	    -31.56471411	     13.20525815	     -5.45367971	    -13.48107750	     -1.24132301	     -8.85499151
      2.88000000	      7.71346547	     -1.78545203	    -26.68967501	     -0.38378935	      0.91911805	     -0.47388141	    -10.09604918	      3.68558439	      3.78849284	    -47.21529680	     -6.67333067	      1.40871275	     16.78403876	      0.09991297	      6.22976635	    -31.39308103	     13.91822518	     -5.55655213	    -13.64257102	     -1.60940914	     -9.03658172
      2.89000000	      7.92237639	     -1.64545126	    -27.64910079	     -0.37497416	      0.92086139	     -0.46944068	     -8.40969669	      2.84958442	      3.01142307	    -50.33003303	     -8.86761134	      1.86954936	     15.68966857	      0.10767000	      5.15574273	    -31.11540597	     14.58362969	     -5.60684896	    -13.81028822	     -1.94350086	     -9.23166782
      2.90000000	      8.08461499	     -1.52038364	    -28.65091828	     -0.36652107	      0.92251435	     -0.46502790	     -6.57243635	      2.03286760	      2.31065999	    -53.37753727	    -10.61780050	      2.34353938	     14.61698242	      0.09060226	      4.02515035	    -30.76126624	     15.19694883	     -5.62387265	    -13.97227962	     -2.22092400	     -9.43141251
      2.91000000	      8.19638332	     -1.41402557	    -29.67877726	     -0.35839994	      0.92408560	     -0.46063418	     -4.61504802	      1.27288708	      1.69732486	    -56.28393856	    -11.81138722	      2.75459404	     13.57537239	      0.04745586	      2.85070852	    -30.34597840	     15.75324990	     -5.61445261	    -14.12357626	     -2.43720052	     -9.64577256
      2.92000000	      8.28126686	     -1.34466070	    -30.71142538	     -0.35053145	      0.92564425	     -0.45630239	     -2.60580381	      0.58342949	      1.13723046	    -58.97452082	    -12.44220544	      3.00205491	     12.53772726	     -0.01275289	      1.66218496	    -29.88661004	     16.22569316	     -5.59527793	    -14.29062323	     -2.57406908	     -9.85093309
      2.93000000	      8.26723920	     -1.30198085	    -31.69891552	     -0.34288071	      0.92707847	     -0.45203565	     -0.49817190	      0.03002885	      0.59602403	    -61.40835152	    -12.47329445	      3.21776314	     11.59795547	     -0.10874861	      0.54671026	    -29.42264041	     16.72064810	     -5.61405176	    -14.39149444	     -2.60492932	    -10.09186932
      2.94000000	      8.22374463	     -1.30654530	    -32.64592705	     -0.33535177	      0.92856784	     -0.44775938	      1.57901501	     -0.40876909	      0.04480784	    -63.50402052	    -12.01079213	      3.11956694	     10.64082297	     -0.23111596	     -0.53410496	    -28.89945639	     17.13377013	     -5.65440458	    -14.49123584	     -2.55104803	    -10.35451539
      2.95000000	      8.13461032	     -1.35319487	    -33.52240714	     -0.32795103	      0.93006506	     -0.44348673	      3.62568025	     -0.71324014	     -0.54398230	    -65.25081326	    -11.14172137	      2.70907221	      9.70805298	     -0.38143623	     -1.53418865	    -28.36122072	     17.48187133	     -5.73962852	    -14.57629149	     -2.41462709	    -10.65000524
      2.96000000	      8.01044567	     -1.44848472	    -34.31843901	     -0.32058199	      0.93160528	     -0.43919669	      5.58679541	     -0.90478864	     -1.22316959	    -66.60431156	     -9.99243169	      1.94237964	      8.76893564	     -0.55719594	     -2.42897095	    -27.79112679	     17.83014055	     -5.86750167	    -14.64676533	     -2.19055682	    -10.97606140
      2.97000000	      7.86765346	     -1.60963945	    -35.03653295	     -0.31326190	      0.93324097	     -0.43482374	      7.41172624	     -0.95934411	     -1.96612772	    -67.54449283	     -8.67403543	      1.06072640	      7.78242906	     -0.77458089	     -3.22548963	    -27.16430039	     18.12637204	     -6.00676231	    -14.73085703	     -1.88926396	    -11.32691713
      2.98000000	      7.72302756	     -1.84943786	    -35.64250885	     -0.30593507	      0.93495854	     -0.43037522	      9.05443940	     -0.90563959	     -2.84427064	    -68.07368673	     -7.32522235	      0.13666244	      6.74703817	     -1.04196441	     -3.92356333	    -26.52554987	     18.43960591	     -6.12942287	    -14.84593257	     -1.51193435	    -11.71403227
      2.99000000	      7.56712911	     -2.14402101	    -36.18378058	     -0.29862378	      0.93672601	     -0.42580827	     10.53826200	     -0.75512791	     -3.78904835	    -68.20515995	     -6.01288362	     -0.62863825	      5.66110163	     -1.34780952	     -4.54441118	    -25.83766724	     18.69941104	     -6.21663261	    -14.96861473	     -1.08133406	    -12.09689139
      3.00000000	      7.41941517	     -2.48167207	    -36.64442069	     -0.29128561	      0.93849115	     -0.42116802	     11.85044102	     -0.56447560	     -4.83764989	    -67.96879928	     -4.80050463	     -1.12291115	      4.54298981	     -1.67843205	     -5.12467907	    -25.15465375	     18.95762844	     -6.24343033	    -15.10892936	     -0.61262992	    -12.52201338
      3.01000000	      7.23207883	     -2.79475658	    -37.06043238	     -0.28400264	      0.94007298	     -0.41642947	     13.10581802	     -0.35408595	     -5.93103067	    -67.42781971	     -3.67710994	     -1.13761452	      3.48259570	     -2.01152303	     -5.67420546	    -24.48138446	     19.18133116	     -6.24478508	    -15.18124618	     -0.15565493	    -12.92847768
      3.02000000	      7.07835660	     -3.13647636	    -37.43937502	     -0.27672668	      0.94160065	     -0.41159251	     14.18462992	     -0.14489469	     -7.07510131	    -66.57253840	     -2.63875581	     -1.16655181	      2.36167504	     -2.34369283	     -6.20758175	    -23.79091365	     19.40511939	     -6.20874607	    -15.29429649	      0.30119825	    -13.33213010
